# xmcd
#
# Track frame offsets: 
#        150
#        25434
#        44511
#        65220
#        93513
#        110231
#        126573
#        144303
#        175581
#
# Disc length: 2586 seconds
#
# Revision: 0
# Processed by: cddbd v1.5.2PL0 Copyright (c) Steve Scherf et al.
# Submitted via: ExactAudioCopy v0.99pb5
#
DISCID=8a0a1809
DTITLE=Heather Cimarrusti - Given
DYEAR=2010
DGENRE=
TTITLE0=Midnight Clear
TTITLE1=Away In A Manger
TTITLE2=Jolly Old St. Nick
TTITLE3=What Child
TTITLE4=O Little Town Of Bethlehem
TTITLE5=All Thru The Night
TTITLE6=God Rest Ye
TTITLE7=Silent Night
TTITLE8=Bleak Midwinter
EXTD=
EXTT0=
EXTT1=
EXTT2=
EXTT3=
EXTT4=
EXTT5=
EXTT6=
EXTT7=
EXTT8=
PLAYORDER=
